<?xml version="1.0" standalone="no"?>
<!DOCTYPE svg PUBLIC "-//W3C//DTD SVG 20010904//EN"
 "http://www.w3.org/TR/2001/REC-SVG-20010904/DTD/svg10.dtd">
<svg version="1.0" xmlns="http://www.w3.org/2000/svg"
 width="512.000000pt" height="512.000000pt" viewBox="0 0 512.000000 512.000000"
 preserveAspectRatio="xMidYMid meet">
<metadata>
Created by potrace 1.11, written by Peter Selinger 2001-2013
</metadata>
<g transform="translate(0.000000,512.000000) scale(0.100000,-0.100000)"
fill="#000000" stroke="none">
<path d="M446 3921 c-3 -5 -90 -9 -193 -9 -268 0 -243 4 -201 -34 20 -18 53
-48 74 -67 22 -18 75 -66 118 -105 44 -39 95 -84 113 -101 19 -16 52 -47 74
-67 21 -21 41 -38 43 -38 3 0 22 -17 43 -37 21 -21 67 -63 102 -93 34 -30 75
-66 90 -80 15 -14 58 -53 96 -86 39 -34 82 -73 96 -85 64 -59 141 -129 204
-184 37 -33 80 -71 95 -85 15 -14 49 -45 76 -69 141 -125 179 -159 217 -194
l42 -38 -35 -30 c-65 -56 -152 -134 -174 -154 -22 -20 -130 -114 -170 -148
-24 -21 -118 -103 -150 -132 -13 -11 -48 -42 -80 -69 -31 -27 -70 -61 -85 -75
-25 -23 -57 -51 -161 -141 -31 -26 -133 -116 -169 -149 -14 -13 -50 -44 -80
-70 -59 -50 -105 -90 -166 -145 -22 -19 -44 -36 -48 -36 -5 0 -5 -5 -2 -10 3
-6 0 -10 -7 -10 -7 0 -33 -19 -58 -43 -25 -23 -67 -60 -94 -82 l-49 -40 29 -5
c16 -3 32 -1 36 5 5 6 8 6 8 0 0 -6 32 -8 86 -5 47 3 88 3 90 1 2 -3 21 -4 42
-4 20 1 71 2 112 3 41 1 77 1 80 0 24 -6 110 -3 110 4 0 6 4 6 10 0 6 -6 33
-8 65 -4 31 3 58 4 60 1 3 -2 22 -4 43 -4 20 1 71 2 112 3 41 1 77 1 80 0 22
-6 110 -3 110 3 0 5 6 5 13 0 17 -11 49 -4 68 15 8 10 40 37 69 62 29 25 68
59 86 75 17 17 51 46 74 65 24 19 64 56 91 82 27 25 49 43 49 40 0 -4 11 4 24
18 12 14 48 46 78 72 30 26 66 58 80 70 34 31 126 112 248 218 35 30 71 62 80
70 9 8 65 58 125 110 61 52 130 114 155 137 25 24 48 43 53 43 4 0 7 5 7 11 0
6 11 25 24 42 56 75 77 219 45 310 -10 26 -15 47 -13 47 11 0 -55 89 -96 130
-39 39 -156 146 -226 207 -54 46 -150 132 -188 166 -50 46 -65 59 -141 127
-33 29 -95 85 -139 124 -43 39 -88 80 -101 91 -113 99 -162 143 -180 160 -11
11 -59 53 -105 94 -47 41 -93 83 -103 94 -16 18 -30 20 -123 20 -77 -1 -102 2
-97 10 5 9 3 9 -8 1 -17 -14 -481 -16 -473 -3 3 5 3 9 0 9 -3 0 -7 -4 -10 -9z"/>
<path d="M4766 3921 c-3 -4 -166 -8 -363 -7 -197 1 -375 -2 -397 -7 -21 -4
-46 -16 -55 -26 -9 -10 -59 -56 -111 -102 -52 -46 -101 -90 -108 -96 -7 -7
-18 -13 -23 -13 -5 0 -9 -7 -9 -15 0 -8 -4 -15 -9 -15 -5 0 -25 -15 -44 -32
-20 -18 -50 -46 -69 -62 -18 -15 -61 -54 -95 -85 -34 -31 -89 -81 -124 -111
-34 -30 -74 -66 -88 -79 -79 -71 -176 -159 -196 -176 -13 -11 -58 -51 -101
-90 -42 -38 -100 -90 -128 -115 -87 -78 -116 -113 -146 -175 -24 -50 -45 -137
-42 -180 2 -47 16 -104 36 -149 29 -66 80 -118 300 -309 34 -30 65 -56 191
-167 171 -150 184 -162 221 -195 18 -16 50 -44 71 -62 21 -18 52 -45 69 -60
17 -15 57 -50 89 -78 32 -27 76 -67 98 -87 21 -21 43 -38 47 -38 5 0 15 -8 22
-18 7 -9 42 -42 78 -72 36 -30 75 -66 87 -80 13 -14 23 -20 23 -15 0 8 87 12
110 5 7 -2 61 -2 150 0 41 1 77 1 80 0 24 -6 110 -3 110 4 0 6 4 6 10 0 6 -6
33 -8 65 -4 31 3 58 4 60 1 3 -2 22 -4 43 -4 20 1 71 2 112 3 41 1 77 1 80 0
22 -6 110 -3 110 3 0 5 5 5 11 2 11 -8 168 -9 175 -2 2 2 -17 23 -44 45 -27
23 -60 52 -73 64 -14 13 -51 46 -84 73 -32 28 -63 55 -69 61 -13 13 -142 126
-256 224 -55 47 -145 126 -166 145 -12 11 -48 43 -80 70 -31 28 -62 55 -68 60
-6 6 -42 37 -81 70 -38 33 -72 63 -75 66 -3 3 -59 52 -125 109 -112 97 -143
125 -216 190 -15 14 -45 39 -66 57 -21 17 -55 47 -76 66 l-37 34 82 76 c46 41
92 84 104 94 36 31 166 147 188 168 12 11 57 51 101 90 44 38 98 87 120 107
44 41 60 55 159 143 38 33 86 77 107 98 22 20 41 37 42 37 4 0 101 88 164 148
19 17 36 32 39 32 2 0 16 12 32 28 29 28 158 144 201 181 97 84 171 155 166
159 -3 3 -77 5 -165 5 -92 -1 -158 3 -154 8 3 5 3 9 0 9 -3 0 -7 -4 -10 -9z"/>
</g>
</svg>
